<mxfile host="Electron" modified="2024-02-26T15:33:57.278Z" agent="Mozilla/5.0 (Windows NT 10.0; Win64; x64) AppleWebKit/537.36 (KHTML, like Gecko) draw.io/22.0.0 Chrome/114.0.5735.289 Electron/25.8.3 Safari/537.36" etag="3h7WeJhGgf5AZWbwKCuV" version="22.0.0" type="device">
  <diagram name="Page-1" id="DFUX-T2xe7V-dYGgTcT2">
    <mxGraphModel dx="1793" dy="1045" grid="1" gridSize="10" guides="1" tooltips="1" connect="1" arrows="1" fold="1" page="1" pageScale="1" pageWidth="1600" pageHeight="900" math="0" shadow="0">
      <root>
        <mxCell id="0" />
        <mxCell id="1" parent="0" />
        <mxCell id="uFxU8IMKc7Zmd3NYNZAz-1" value="&lt;span style=&quot;font-weight: normal;&quot;&gt;«abstract»&lt;/span&gt;&lt;br&gt;Document" style="swimlane;fontStyle=1;align=center;verticalAlign=top;childLayout=stackLayout;horizontal=1;startSize=40;horizontalStack=0;resizeParent=1;resizeParentMax=0;resizeLast=0;collapsible=1;marginBottom=0;whiteSpace=wrap;html=1;" vertex="1" parent="1">
          <mxGeometry x="260" y="209" width="170" height="230" as="geometry">
            <mxRectangle x="400" y="360" width="100" height="40" as="alternateBounds" />
          </mxGeometry>
        </mxCell>
        <mxCell id="uFxU8IMKc7Zmd3NYNZAz-2" value="+ DocumentName: string&lt;br&gt;+ LoadedAt: DateTime&lt;br&gt;+ Number: string&lt;br&gt;+ Firstname: string&lt;br&gt;+ Lastname: string&lt;br&gt;+ Surname: string?&lt;br&gt;+ Photo: byte[]?&lt;br&gt;+ DateOfIssue: DateTime?&lt;br&gt;+ DateOfExpire: DateTime?" style="text;strokeColor=none;fillColor=none;align=left;verticalAlign=middle;spacingLeft=4;spacingRight=4;overflow=hidden;rotatable=0;points=[[0,0.5],[1,0.5]];portConstraint=eastwest;whiteSpace=wrap;html=1;" vertex="1" parent="uFxU8IMKc7Zmd3NYNZAz-1">
          <mxGeometry y="40" width="170" height="140" as="geometry" />
        </mxCell>
        <mxCell id="uFxU8IMKc7Zmd3NYNZAz-3" value="" style="line;strokeWidth=1;fillColor=none;align=left;verticalAlign=middle;spacingTop=-1;spacingLeft=3;spacingRight=3;rotatable=0;labelPosition=right;points=[];portConstraint=eastwest;strokeColor=inherit;" vertex="1" parent="uFxU8IMKc7Zmd3NYNZAz-1">
          <mxGeometry y="180" width="170" height="8" as="geometry" />
        </mxCell>
        <mxCell id="uFxU8IMKc7Zmd3NYNZAz-4" value="+ GetRunningTex(): string&lt;br&gt;+&amp;nbsp;ToString(): string" style="text;strokeColor=none;fillColor=none;align=left;verticalAlign=middle;spacingLeft=4;spacingRight=4;overflow=hidden;rotatable=0;points=[[0,0.5],[1,0.5]];portConstraint=eastwest;whiteSpace=wrap;html=1;" vertex="1" parent="uFxU8IMKc7Zmd3NYNZAz-1">
          <mxGeometry y="188" width="170" height="42" as="geometry" />
        </mxCell>
        <mxCell id="uFxU8IMKc7Zmd3NYNZAz-26" style="edgeStyle=orthogonalEdgeStyle;rounded=0;orthogonalLoop=1;jettySize=auto;html=1;dashed=1;endArrow=block;endFill=0;startArrow=diamondThin;startFill=0;fillColor=#1ba1e2;strokeColor=#006EAF;entryX=0;entryY=0.25;entryDx=0;entryDy=0;" edge="1" parent="1" source="uFxU8IMKc7Zmd3NYNZAz-5" target="uFxU8IMKc7Zmd3NYNZAz-15">
          <mxGeometry relative="1" as="geometry" />
        </mxCell>
        <mxCell id="uFxU8IMKc7Zmd3NYNZAz-48" style="edgeStyle=orthogonalEdgeStyle;rounded=0;orthogonalLoop=1;jettySize=auto;html=1;endArrow=block;endFill=0;" edge="1" parent="1" source="uFxU8IMKc7Zmd3NYNZAz-5" target="uFxU8IMKc7Zmd3NYNZAz-1">
          <mxGeometry relative="1" as="geometry">
            <Array as="points">
              <mxPoint x="560" y="490" />
              <mxPoint x="345" y="490" />
            </Array>
          </mxGeometry>
        </mxCell>
        <mxCell id="uFxU8IMKc7Zmd3NYNZAz-5" value="ITNDocument" style="swimlane;fontStyle=1;align=center;verticalAlign=top;childLayout=stackLayout;horizontal=1;startSize=26;horizontalStack=0;resizeParent=1;resizeParentMax=0;resizeLast=0;collapsible=1;marginBottom=0;whiteSpace=wrap;html=1;" vertex="1" parent="1">
          <mxGeometry x="480" y="550" width="160" height="74" as="geometry" />
        </mxCell>
        <mxCell id="uFxU8IMKc7Zmd3NYNZAz-7" value="" style="line;strokeWidth=1;fillColor=none;align=left;verticalAlign=middle;spacingTop=-1;spacingLeft=3;spacingRight=3;rotatable=0;labelPosition=right;points=[];portConstraint=eastwest;strokeColor=inherit;" vertex="1" parent="uFxU8IMKc7Zmd3NYNZAz-5">
          <mxGeometry y="26" width="160" height="8" as="geometry" />
        </mxCell>
        <mxCell id="uFxU8IMKc7Zmd3NYNZAz-8" value="+ GetRunningTex(): string&lt;br&gt;+&amp;nbsp;ToString(): string" style="text;strokeColor=none;fillColor=none;align=left;verticalAlign=middle;spacingLeft=4;spacingRight=4;overflow=hidden;rotatable=0;points=[[0,0.5],[1,0.5]];portConstraint=eastwest;whiteSpace=wrap;html=1;" vertex="1" parent="uFxU8IMKc7Zmd3NYNZAz-5">
          <mxGeometry y="34" width="160" height="40" as="geometry" />
        </mxCell>
        <mxCell id="uFxU8IMKc7Zmd3NYNZAz-15" value="&lt;span style=&quot;font-weight: normal;&quot;&gt;«interface»&lt;/span&gt;&lt;br&gt;ITax" style="swimlane;fontStyle=1;align=center;verticalAlign=top;childLayout=stackLayout;horizontal=1;startSize=40;horizontalStack=0;resizeParent=1;resizeParentMax=0;resizeLast=0;collapsible=1;marginBottom=0;whiteSpace=wrap;html=1;" vertex="1" parent="1">
          <mxGeometry x="835" y="280" width="170" height="88" as="geometry">
            <mxRectangle x="400" y="360" width="100" height="40" as="alternateBounds" />
          </mxGeometry>
        </mxCell>
        <mxCell id="uFxU8IMKc7Zmd3NYNZAz-16" value="+&amp;nbsp;TaxIdentifier: ulong&lt;br&gt;+&amp;nbsp;TaxCheckedOn:&amp;nbsp;DateTime?" style="text;strokeColor=none;fillColor=none;align=left;verticalAlign=middle;spacingLeft=4;spacingRight=4;overflow=hidden;rotatable=0;points=[[0,0.5],[1,0.5]];portConstraint=eastwest;whiteSpace=wrap;html=1;" vertex="1" parent="uFxU8IMKc7Zmd3NYNZAz-15">
          <mxGeometry y="40" width="170" height="40" as="geometry" />
        </mxCell>
        <mxCell id="uFxU8IMKc7Zmd3NYNZAz-17" value="" style="line;strokeWidth=1;fillColor=none;align=left;verticalAlign=middle;spacingTop=-1;spacingLeft=3;spacingRight=3;rotatable=0;labelPosition=right;points=[];portConstraint=eastwest;strokeColor=inherit;" vertex="1" parent="uFxU8IMKc7Zmd3NYNZAz-15">
          <mxGeometry y="80" width="170" height="8" as="geometry" />
        </mxCell>
        <mxCell id="uFxU8IMKc7Zmd3NYNZAz-19" value="«&lt;span style=&quot;font-weight: 400;&quot;&gt;interface&lt;/span&gt;&lt;span style=&quot;font-weight: normal;&quot;&gt;»&lt;/span&gt;&lt;br&gt;IQRCheck" style="swimlane;fontStyle=1;align=center;verticalAlign=top;childLayout=stackLayout;horizontal=1;startSize=40;horizontalStack=0;resizeParent=1;resizeParentMax=0;resizeLast=0;collapsible=1;marginBottom=0;whiteSpace=wrap;html=1;" vertex="1" parent="1">
          <mxGeometry x="835" y="380" width="170" height="70" as="geometry">
            <mxRectangle x="400" y="360" width="100" height="40" as="alternateBounds" />
          </mxGeometry>
        </mxCell>
        <mxCell id="uFxU8IMKc7Zmd3NYNZAz-21" value="" style="line;strokeWidth=1;fillColor=none;align=left;verticalAlign=middle;spacingTop=-1;spacingLeft=3;spacingRight=3;rotatable=0;labelPosition=right;points=[];portConstraint=eastwest;strokeColor=inherit;" vertex="1" parent="uFxU8IMKc7Zmd3NYNZAz-19">
          <mxGeometry y="40" width="170" height="8" as="geometry" />
        </mxCell>
        <mxCell id="uFxU8IMKc7Zmd3NYNZAz-22" value="+&amp;nbsp;GetQR(): Uri" style="text;strokeColor=none;fillColor=none;align=left;verticalAlign=middle;spacingLeft=4;spacingRight=4;overflow=hidden;rotatable=0;points=[[0,0.5],[1,0.5]];portConstraint=eastwest;whiteSpace=wrap;html=1;" vertex="1" parent="uFxU8IMKc7Zmd3NYNZAz-19">
          <mxGeometry y="48" width="170" height="22" as="geometry" />
        </mxCell>
        <mxCell id="uFxU8IMKc7Zmd3NYNZAz-23" value="«&lt;span style=&quot;font-weight: 400;&quot;&gt;interface&lt;/span&gt;&lt;span style=&quot;font-weight: normal;&quot;&gt;»&lt;/span&gt;&lt;br&gt;IBarcodeCheck" style="swimlane;fontStyle=1;align=center;verticalAlign=top;childLayout=stackLayout;horizontal=1;startSize=40;horizontalStack=0;resizeParent=1;resizeParentMax=0;resizeLast=0;collapsible=1;marginBottom=0;whiteSpace=wrap;html=1;" vertex="1" parent="1">
          <mxGeometry x="835" y="460" width="170" height="70" as="geometry">
            <mxRectangle x="400" y="360" width="100" height="40" as="alternateBounds" />
          </mxGeometry>
        </mxCell>
        <mxCell id="uFxU8IMKc7Zmd3NYNZAz-24" value="" style="line;strokeWidth=1;fillColor=none;align=left;verticalAlign=middle;spacingTop=-1;spacingLeft=3;spacingRight=3;rotatable=0;labelPosition=right;points=[];portConstraint=eastwest;strokeColor=inherit;" vertex="1" parent="uFxU8IMKc7Zmd3NYNZAz-23">
          <mxGeometry y="40" width="170" height="8" as="geometry" />
        </mxCell>
        <mxCell id="uFxU8IMKc7Zmd3NYNZAz-25" value="+&amp;nbsp;GetBarcode(): int" style="text;strokeColor=none;fillColor=none;align=left;verticalAlign=middle;spacingLeft=4;spacingRight=4;overflow=hidden;rotatable=0;points=[[0,0.5],[1,0.5]];portConstraint=eastwest;whiteSpace=wrap;html=1;" vertex="1" parent="uFxU8IMKc7Zmd3NYNZAz-23">
          <mxGeometry y="48" width="170" height="22" as="geometry" />
        </mxCell>
        <mxCell id="uFxU8IMKc7Zmd3NYNZAz-27" style="edgeStyle=orthogonalEdgeStyle;rounded=0;orthogonalLoop=1;jettySize=auto;html=1;entryX=0;entryY=0.25;entryDx=0;entryDy=0;dashed=1;endArrow=block;endFill=0;startArrow=diamondThin;startFill=0;fillColor=#1ba1e2;strokeColor=#006EAF;" edge="1" parent="1" source="uFxU8IMKc7Zmd3NYNZAz-5" target="uFxU8IMKc7Zmd3NYNZAz-19">
          <mxGeometry relative="1" as="geometry">
            <mxPoint x="430" y="584" as="sourcePoint" />
            <mxPoint x="650" y="312" as="targetPoint" />
            <Array as="points">
              <mxPoint x="738" y="587" />
              <mxPoint x="738" y="398" />
            </Array>
          </mxGeometry>
        </mxCell>
        <mxCell id="uFxU8IMKc7Zmd3NYNZAz-28" style="edgeStyle=orthogonalEdgeStyle;rounded=0;orthogonalLoop=1;jettySize=auto;html=1;entryX=0;entryY=0.25;entryDx=0;entryDy=0;dashed=1;endArrow=block;endFill=0;startArrow=diamondThin;startFill=0;fillColor=#1ba1e2;strokeColor=#006EAF;" edge="1" parent="1" source="uFxU8IMKc7Zmd3NYNZAz-5" target="uFxU8IMKc7Zmd3NYNZAz-23">
          <mxGeometry relative="1" as="geometry">
            <mxPoint x="440" y="594" as="sourcePoint" />
            <mxPoint x="660" y="322" as="targetPoint" />
          </mxGeometry>
        </mxCell>
        <mxCell id="uFxU8IMKc7Zmd3NYNZAz-47" style="edgeStyle=orthogonalEdgeStyle;rounded=0;orthogonalLoop=1;jettySize=auto;html=1;endArrow=block;endFill=0;" edge="1" parent="1" source="uFxU8IMKc7Zmd3NYNZAz-33" target="uFxU8IMKc7Zmd3NYNZAz-1">
          <mxGeometry relative="1" as="geometry">
            <Array as="points">
              <mxPoint x="120" y="490" />
              <mxPoint x="345" y="490" />
            </Array>
          </mxGeometry>
        </mxCell>
        <mxCell id="uFxU8IMKc7Zmd3NYNZAz-33" value="StudentPass" style="swimlane;fontStyle=1;align=center;verticalAlign=top;childLayout=stackLayout;horizontal=1;startSize=26;horizontalStack=0;resizeParent=1;resizeParentMax=0;resizeLast=0;collapsible=1;marginBottom=0;whiteSpace=wrap;html=1;" vertex="1" parent="1">
          <mxGeometry x="40" y="550" width="160" height="110" as="geometry" />
        </mxCell>
        <mxCell id="uFxU8IMKc7Zmd3NYNZAz-34" value="+ StudyForm: string&lt;br&gt;+&amp;nbsp;UniversityDetails: string" style="text;strokeColor=none;fillColor=none;align=left;verticalAlign=middle;spacingLeft=4;spacingRight=4;overflow=hidden;rotatable=0;points=[[0,0.5],[1,0.5]];portConstraint=eastwest;whiteSpace=wrap;html=1;" vertex="1" parent="uFxU8IMKc7Zmd3NYNZAz-33">
          <mxGeometry y="26" width="160" height="34" as="geometry" />
        </mxCell>
        <mxCell id="uFxU8IMKc7Zmd3NYNZAz-35" value="" style="line;strokeWidth=1;fillColor=none;align=left;verticalAlign=middle;spacingTop=-1;spacingLeft=3;spacingRight=3;rotatable=0;labelPosition=right;points=[];portConstraint=eastwest;strokeColor=inherit;" vertex="1" parent="uFxU8IMKc7Zmd3NYNZAz-33">
          <mxGeometry y="60" width="160" height="8" as="geometry" />
        </mxCell>
        <mxCell id="uFxU8IMKc7Zmd3NYNZAz-36" value="&lt;div&gt;+ GetRunningTex(): string&lt;/div&gt;&lt;div&gt;+ ToString(): string&lt;/div&gt;" style="text;strokeColor=none;fillColor=none;align=left;verticalAlign=middle;spacingLeft=4;spacingRight=4;overflow=hidden;rotatable=0;points=[[0,0.5],[1,0.5]];portConstraint=eastwest;whiteSpace=wrap;html=1;" vertex="1" parent="uFxU8IMKc7Zmd3NYNZAz-33">
          <mxGeometry y="68" width="160" height="42" as="geometry" />
        </mxCell>
        <mxCell id="uFxU8IMKc7Zmd3NYNZAz-37" style="edgeStyle=orthogonalEdgeStyle;rounded=0;orthogonalLoop=1;jettySize=auto;html=1;dashed=1;endArrow=block;endFill=0;startArrow=diamondThin;startFill=0;fillColor=#60a917;strokeColor=#2D7600;" edge="1" parent="1" source="uFxU8IMKc7Zmd3NYNZAz-33" target="uFxU8IMKc7Zmd3NYNZAz-23">
          <mxGeometry relative="1" as="geometry">
            <mxPoint x="260" y="570" as="sourcePoint" />
            <mxPoint x="845" y="487" as="targetPoint" />
            <Array as="points">
              <mxPoint x="230" y="605" />
              <mxPoint x="230" y="520" />
              <mxPoint x="720" y="520" />
              <mxPoint x="720" y="470" />
            </Array>
          </mxGeometry>
        </mxCell>
        <mxCell id="uFxU8IMKc7Zmd3NYNZAz-38" style="edgeStyle=orthogonalEdgeStyle;rounded=0;orthogonalLoop=1;jettySize=auto;html=1;dashed=1;endArrow=block;endFill=0;startArrow=diamondThin;startFill=0;fillColor=#60a917;strokeColor=#2D7600;" edge="1" parent="1" source="uFxU8IMKc7Zmd3NYNZAz-33" target="uFxU8IMKc7Zmd3NYNZAz-19">
          <mxGeometry relative="1" as="geometry">
            <mxPoint x="260" y="615" as="sourcePoint" />
            <mxPoint x="845" y="487" as="targetPoint" />
            <Array as="points">
              <mxPoint x="230" y="605" />
              <mxPoint x="230" y="520" />
              <mxPoint x="720" y="520" />
              <mxPoint x="720" y="410" />
            </Array>
          </mxGeometry>
        </mxCell>
        <mxCell id="uFxU8IMKc7Zmd3NYNZAz-46" value="" style="edgeStyle=orthogonalEdgeStyle;rounded=0;orthogonalLoop=1;jettySize=auto;html=1;endArrow=block;endFill=0;" edge="1" parent="1" source="uFxU8IMKc7Zmd3NYNZAz-39" target="uFxU8IMKc7Zmd3NYNZAz-1">
          <mxGeometry relative="1" as="geometry">
            <Array as="points" />
          </mxGeometry>
        </mxCell>
        <mxCell id="uFxU8IMKc7Zmd3NYNZAz-39" value="Passport" style="swimlane;fontStyle=1;align=center;verticalAlign=top;childLayout=stackLayout;horizontal=1;startSize=26;horizontalStack=0;resizeParent=1;resizeParentMax=0;resizeLast=0;collapsible=1;marginBottom=0;whiteSpace=wrap;html=1;" vertex="1" parent="1">
          <mxGeometry x="265" y="550" width="160" height="200" as="geometry" />
        </mxCell>
        <mxCell id="uFxU8IMKc7Zmd3NYNZAz-40" value="+ Sex: Sex (int)&lt;br&gt;+&amp;nbsp;DateOfBirth:&amp;nbsp;DateTime&lt;br&gt;+&amp;nbsp;Nationality: string&lt;br&gt;+&amp;nbsp;Authority: int&lt;br&gt;+&amp;nbsp;RecordNumber: string&lt;br&gt;+&amp;nbsp;PlaceOfBirth: string&lt;br&gt;+&amp;nbsp;PlaceOfResidence: string&lt;br&gt;+&amp;nbsp;RegisteredOn: DateTime" style="text;strokeColor=none;fillColor=none;align=left;verticalAlign=middle;spacingLeft=4;spacingRight=4;overflow=hidden;rotatable=0;points=[[0,0.5],[1,0.5]];portConstraint=eastwest;whiteSpace=wrap;html=1;" vertex="1" parent="uFxU8IMKc7Zmd3NYNZAz-39">
          <mxGeometry y="26" width="160" height="124" as="geometry" />
        </mxCell>
        <mxCell id="uFxU8IMKc7Zmd3NYNZAz-41" value="" style="line;strokeWidth=1;fillColor=none;align=left;verticalAlign=middle;spacingTop=-1;spacingLeft=3;spacingRight=3;rotatable=0;labelPosition=right;points=[];portConstraint=eastwest;strokeColor=inherit;" vertex="1" parent="uFxU8IMKc7Zmd3NYNZAz-39">
          <mxGeometry y="150" width="160" height="8" as="geometry" />
        </mxCell>
        <mxCell id="uFxU8IMKc7Zmd3NYNZAz-42" value="+ GetRunningTex(): string&lt;br&gt;+&amp;nbsp;ToString(): string" style="text;strokeColor=none;fillColor=none;align=left;verticalAlign=top;spacingLeft=4;spacingRight=4;overflow=hidden;rotatable=0;points=[[0,0.5],[1,0.5]];portConstraint=eastwest;whiteSpace=wrap;html=1;" vertex="1" parent="uFxU8IMKc7Zmd3NYNZAz-39">
          <mxGeometry y="158" width="160" height="42" as="geometry" />
        </mxCell>
        <mxCell id="uFxU8IMKc7Zmd3NYNZAz-43" style="edgeStyle=orthogonalEdgeStyle;rounded=0;orthogonalLoop=1;jettySize=auto;html=1;dashed=1;endArrow=block;endFill=0;startArrow=diamondThin;startFill=0;fillColor=#a20025;strokeColor=#6F0000;" edge="1" parent="1" source="uFxU8IMKc7Zmd3NYNZAz-39" target="uFxU8IMKc7Zmd3NYNZAz-15">
          <mxGeometry relative="1" as="geometry">
            <mxPoint x="250" y="763" as="sourcePoint" />
            <mxPoint x="885" y="556" as="targetPoint" />
            <Array as="points">
              <mxPoint x="450" y="593" />
              <mxPoint x="450" y="540" />
              <mxPoint x="700" y="540" />
              <mxPoint x="700" y="290" />
            </Array>
          </mxGeometry>
        </mxCell>
        <mxCell id="uFxU8IMKc7Zmd3NYNZAz-49" style="edgeStyle=orthogonalEdgeStyle;rounded=0;orthogonalLoop=1;jettySize=auto;html=1;dashed=1;endArrow=block;endFill=0;startArrow=diamondThin;startFill=0;fillColor=#a20025;strokeColor=#6F0000;" edge="1" parent="1" source="uFxU8IMKc7Zmd3NYNZAz-39" target="uFxU8IMKc7Zmd3NYNZAz-19">
          <mxGeometry relative="1" as="geometry">
            <mxPoint x="435" y="603" as="sourcePoint" />
            <mxPoint x="845" y="312" as="targetPoint" />
            <Array as="points">
              <mxPoint x="450" y="593" />
              <mxPoint x="450" y="540" />
              <mxPoint x="700" y="540" />
              <mxPoint x="700" y="390" />
            </Array>
          </mxGeometry>
        </mxCell>
        <mxCell id="uFxU8IMKc7Zmd3NYNZAz-50" style="edgeStyle=orthogonalEdgeStyle;rounded=0;orthogonalLoop=1;jettySize=auto;html=1;dashed=1;endArrow=block;endFill=0;startArrow=diamondThin;startFill=0;fillColor=#a20025;strokeColor=#6F0000;" edge="1" parent="1" source="uFxU8IMKc7Zmd3NYNZAz-39" target="uFxU8IMKc7Zmd3NYNZAz-23">
          <mxGeometry relative="1" as="geometry">
            <mxPoint x="435" y="603" as="sourcePoint" />
            <mxPoint x="845" y="410" as="targetPoint" />
            <Array as="points">
              <mxPoint x="450" y="593" />
              <mxPoint x="450" y="540" />
              <mxPoint x="700" y="540" />
              <mxPoint x="700" y="490" />
            </Array>
          </mxGeometry>
        </mxCell>
        <mxCell id="uFxU8IMKc7Zmd3NYNZAz-51" value="&lt;span style=&quot;font-weight: normal;&quot;&gt;«interface»&lt;/span&gt;&lt;br&gt;IRecord" style="swimlane;fontStyle=1;align=center;verticalAlign=top;childLayout=stackLayout;horizontal=1;startSize=40;horizontalStack=0;resizeParent=1;resizeParentMax=0;resizeLast=0;collapsible=1;marginBottom=0;whiteSpace=wrap;html=1;" vertex="1" parent="1">
          <mxGeometry x="835" y="160" width="205" height="110" as="geometry">
            <mxRectangle x="400" y="360" width="100" height="40" as="alternateBounds" />
          </mxGeometry>
        </mxCell>
        <mxCell id="uFxU8IMKc7Zmd3NYNZAz-52" value="+&amp;nbsp;RecordNumber: string" style="text;strokeColor=none;fillColor=none;align=left;verticalAlign=middle;spacingLeft=4;spacingRight=4;overflow=hidden;rotatable=0;points=[[0,0.5],[1,0.5]];portConstraint=eastwest;whiteSpace=wrap;html=1;" vertex="1" parent="uFxU8IMKc7Zmd3NYNZAz-51">
          <mxGeometry y="40" width="205" height="30" as="geometry" />
        </mxCell>
        <mxCell id="uFxU8IMKc7Zmd3NYNZAz-53" value="" style="line;strokeWidth=1;fillColor=none;align=left;verticalAlign=middle;spacingTop=-1;spacingLeft=3;spacingRight=3;rotatable=0;labelPosition=right;points=[];portConstraint=eastwest;strokeColor=inherit;" vertex="1" parent="uFxU8IMKc7Zmd3NYNZAz-51">
          <mxGeometry y="70" width="205" height="8" as="geometry" />
        </mxCell>
        <mxCell id="uFxU8IMKc7Zmd3NYNZAz-54" value="+&amp;nbsp;GetRecordDocument(): Document" style="text;strokeColor=none;fillColor=none;align=left;verticalAlign=middle;spacingLeft=4;spacingRight=4;overflow=hidden;rotatable=0;points=[[0,0.5],[1,0.5]];portConstraint=eastwest;whiteSpace=wrap;html=1;" vertex="1" parent="uFxU8IMKc7Zmd3NYNZAz-51">
          <mxGeometry y="78" width="205" height="32" as="geometry" />
        </mxCell>
        <mxCell id="uFxU8IMKc7Zmd3NYNZAz-55" value="&lt;span style=&quot;font-weight: normal;&quot;&gt;«interface»&lt;/span&gt;&lt;br&gt;IResident" style="swimlane;fontStyle=1;align=center;verticalAlign=top;childLayout=stackLayout;horizontal=1;startSize=40;horizontalStack=0;resizeParent=1;resizeParentMax=0;resizeLast=0;collapsible=1;marginBottom=0;whiteSpace=wrap;html=1;" vertex="1" parent="1">
          <mxGeometry x="835" y="40" width="205" height="110" as="geometry">
            <mxRectangle x="400" y="360" width="100" height="40" as="alternateBounds" />
          </mxGeometry>
        </mxCell>
        <mxCell id="uFxU8IMKc7Zmd3NYNZAz-56" value="+&amp;nbsp;RecordNumber: string" style="text;strokeColor=none;fillColor=none;align=left;verticalAlign=middle;spacingLeft=4;spacingRight=4;overflow=hidden;rotatable=0;points=[[0,0.5],[1,0.5]];portConstraint=eastwest;whiteSpace=wrap;html=1;" vertex="1" parent="uFxU8IMKc7Zmd3NYNZAz-55">
          <mxGeometry y="40" width="205" height="30" as="geometry" />
        </mxCell>
        <mxCell id="uFxU8IMKc7Zmd3NYNZAz-57" value="" style="line;strokeWidth=1;fillColor=none;align=left;verticalAlign=middle;spacingTop=-1;spacingLeft=3;spacingRight=3;rotatable=0;labelPosition=right;points=[];portConstraint=eastwest;strokeColor=inherit;" vertex="1" parent="uFxU8IMKc7Zmd3NYNZAz-55">
          <mxGeometry y="70" width="205" height="8" as="geometry" />
        </mxCell>
        <mxCell id="uFxU8IMKc7Zmd3NYNZAz-58" value="+&amp;nbsp;GetPlaceOfResidencePdf(): byte[]" style="text;strokeColor=none;fillColor=none;align=left;verticalAlign=middle;spacingLeft=4;spacingRight=4;overflow=hidden;rotatable=0;points=[[0,0.5],[1,0.5]];portConstraint=eastwest;whiteSpace=wrap;html=1;" vertex="1" parent="uFxU8IMKc7Zmd3NYNZAz-55">
          <mxGeometry y="78" width="205" height="32" as="geometry" />
        </mxCell>
        <mxCell id="uFxU8IMKc7Zmd3NYNZAz-59" style="edgeStyle=orthogonalEdgeStyle;rounded=0;orthogonalLoop=1;jettySize=auto;html=1;dashed=1;endArrow=block;endFill=0;startArrow=diamondThin;startFill=0;fillColor=#a20025;strokeColor=#6F0000;" edge="1" parent="1" source="uFxU8IMKc7Zmd3NYNZAz-39" target="uFxU8IMKc7Zmd3NYNZAz-51">
          <mxGeometry relative="1" as="geometry">
            <mxPoint x="435" y="603" as="sourcePoint" />
            <mxPoint x="845" y="312" as="targetPoint" />
            <Array as="points">
              <mxPoint x="450" y="593" />
              <mxPoint x="450" y="540" />
              <mxPoint x="700" y="540" />
              <mxPoint x="700" y="180" />
            </Array>
          </mxGeometry>
        </mxCell>
        <mxCell id="uFxU8IMKc7Zmd3NYNZAz-60" style="edgeStyle=orthogonalEdgeStyle;rounded=0;orthogonalLoop=1;jettySize=auto;html=1;dashed=1;endArrow=block;endFill=0;startArrow=diamondThin;startFill=0;fillColor=#a20025;strokeColor=#6F0000;" edge="1" parent="1" source="uFxU8IMKc7Zmd3NYNZAz-39" target="uFxU8IMKc7Zmd3NYNZAz-55">
          <mxGeometry relative="1" as="geometry">
            <mxPoint x="435" y="603" as="sourcePoint" />
            <mxPoint x="845" y="190" as="targetPoint" />
            <Array as="points">
              <mxPoint x="450" y="593" />
              <mxPoint x="450" y="540" />
              <mxPoint x="700" y="540" />
              <mxPoint x="700" y="60" />
            </Array>
          </mxGeometry>
        </mxCell>
        <mxCell id="uFxU8IMKc7Zmd3NYNZAz-61" value="&lt;p style=&quot;line-height: 100%; font-size: 4px;&quot;&gt;&lt;font style=&quot;font-size: 4px;&quot;&gt;Чоловічок, який &lt;br style=&quot;font-size: 4px;&quot;&gt;нічого не розуміє&lt;/font&gt;&lt;/p&gt;" style="shape=umlActor;verticalLabelPosition=bottom;verticalAlign=top;html=1;fontSize=4;" vertex="1" parent="1">
          <mxGeometry x="670" y="480" width="7.5" height="15" as="geometry" />
        </mxCell>
        <mxCell id="uFxU8IMKc7Zmd3NYNZAz-64" value="InternationalPassport" style="swimlane;fontStyle=1;align=center;verticalAlign=top;childLayout=stackLayout;horizontal=1;startSize=26;horizontalStack=0;resizeParent=1;resizeParentMax=0;resizeLast=0;collapsible=1;marginBottom=0;whiteSpace=wrap;html=1;" vertex="1" parent="1">
          <mxGeometry x="490" y="800" width="160" height="110" as="geometry" />
        </mxCell>
        <mxCell id="uFxU8IMKc7Zmd3NYNZAz-65" value="+ Type: string&lt;br&gt;+&amp;nbsp;CountryCode: string" style="text;strokeColor=none;fillColor=none;align=left;verticalAlign=middle;spacingLeft=4;spacingRight=4;overflow=hidden;rotatable=0;points=[[0,0.5],[1,0.5]];portConstraint=eastwest;whiteSpace=wrap;html=1;" vertex="1" parent="uFxU8IMKc7Zmd3NYNZAz-64">
          <mxGeometry y="26" width="160" height="34" as="geometry" />
        </mxCell>
        <mxCell id="uFxU8IMKc7Zmd3NYNZAz-66" value="" style="line;strokeWidth=1;fillColor=none;align=left;verticalAlign=middle;spacingTop=-1;spacingLeft=3;spacingRight=3;rotatable=0;labelPosition=right;points=[];portConstraint=eastwest;strokeColor=inherit;" vertex="1" parent="uFxU8IMKc7Zmd3NYNZAz-64">
          <mxGeometry y="60" width="160" height="8" as="geometry" />
        </mxCell>
        <mxCell id="uFxU8IMKc7Zmd3NYNZAz-67" value="&lt;div&gt;+ GetRunningTex(): string&lt;/div&gt;&lt;div&gt;+ ToString(): string&lt;/div&gt;" style="text;strokeColor=none;fillColor=none;align=left;verticalAlign=middle;spacingLeft=4;spacingRight=4;overflow=hidden;rotatable=0;points=[[0,0.5],[1,0.5]];portConstraint=eastwest;whiteSpace=wrap;html=1;" vertex="1" parent="uFxU8IMKc7Zmd3NYNZAz-64">
          <mxGeometry y="68" width="160" height="42" as="geometry" />
        </mxCell>
        <mxCell id="uFxU8IMKc7Zmd3NYNZAz-68" value="«&lt;span style=&quot;font-weight: 400;&quot;&gt;interface&lt;/span&gt;&lt;span style=&quot;font-weight: normal;&quot;&gt;»&lt;/span&gt;&lt;br&gt;ITranslatable" style="swimlane;fontStyle=1;align=center;verticalAlign=top;childLayout=stackLayout;horizontal=1;startSize=40;horizontalStack=0;resizeParent=1;resizeParentMax=0;resizeLast=0;collapsible=1;marginBottom=0;whiteSpace=wrap;html=1;" vertex="1" parent="1">
          <mxGeometry x="835" y="540" width="170" height="90" as="geometry">
            <mxRectangle x="400" y="360" width="100" height="40" as="alternateBounds" />
          </mxGeometry>
        </mxCell>
        <mxCell id="uFxU8IMKc7Zmd3NYNZAz-69" value="" style="line;strokeWidth=1;fillColor=none;align=left;verticalAlign=middle;spacingTop=-1;spacingLeft=3;spacingRight=3;rotatable=0;labelPosition=right;points=[];portConstraint=eastwest;strokeColor=inherit;" vertex="1" parent="uFxU8IMKc7Zmd3NYNZAz-68">
          <mxGeometry y="40" width="170" height="8" as="geometry" />
        </mxCell>
        <mxCell id="uFxU8IMKc7Zmd3NYNZAz-70" value="+&amp;nbsp;TranslateToEN(): void&lt;br&gt;+&amp;nbsp;TranslateOriginal(): void" style="text;strokeColor=none;fillColor=none;align=left;verticalAlign=middle;spacingLeft=4;spacingRight=4;overflow=hidden;rotatable=0;points=[[0,0.5],[1,0.5]];portConstraint=eastwest;whiteSpace=wrap;html=1;" vertex="1" parent="uFxU8IMKc7Zmd3NYNZAz-68">
          <mxGeometry y="48" width="170" height="42" as="geometry" />
        </mxCell>
        <mxCell id="uFxU8IMKc7Zmd3NYNZAz-71" style="edgeStyle=orthogonalEdgeStyle;rounded=0;orthogonalLoop=1;jettySize=auto;html=1;dashed=1;endArrow=block;endFill=0;startArrow=diamondThin;startFill=0;fillColor=#6a00ff;strokeColor=#3700CC;" edge="1" parent="1" source="uFxU8IMKc7Zmd3NYNZAz-64" target="uFxU8IMKc7Zmd3NYNZAz-68">
          <mxGeometry relative="1" as="geometry">
            <mxPoint x="575.99" y="739" as="sourcePoint" />
            <mxPoint x="770.99" y="630" as="targetPoint" />
            <Array as="points">
              <mxPoint x="780" y="810" />
              <mxPoint x="780" y="560" />
            </Array>
          </mxGeometry>
        </mxCell>
        <mxCell id="uFxU8IMKc7Zmd3NYNZAz-72" style="edgeStyle=orthogonalEdgeStyle;rounded=0;orthogonalLoop=1;jettySize=auto;html=1;endArrow=block;endFill=0;exitX=0.5;exitY=0;exitDx=0;exitDy=0;" edge="1" parent="1" source="uFxU8IMKc7Zmd3NYNZAz-64" target="uFxU8IMKc7Zmd3NYNZAz-39">
          <mxGeometry relative="1" as="geometry">
            <mxPoint x="667.5" y="761" as="sourcePoint" />
            <mxPoint x="452.5" y="650" as="targetPoint" />
            <Array as="points">
              <mxPoint x="570" y="780" />
              <mxPoint x="340" y="780" />
            </Array>
          </mxGeometry>
        </mxCell>
        <mxCell id="uFxU8IMKc7Zmd3NYNZAz-73" value="DiaDocument" style="swimlane;fontStyle=1;align=center;verticalAlign=top;childLayout=stackLayout;horizontal=1;startSize=26;horizontalStack=0;resizeParent=1;resizeParentMax=0;resizeLast=0;collapsible=1;marginBottom=0;whiteSpace=wrap;html=1;" vertex="1" parent="1">
          <mxGeometry x="10" y="800" width="160" height="76" as="geometry" />
        </mxCell>
        <mxCell id="uFxU8IMKc7Zmd3NYNZAz-75" value="" style="line;strokeWidth=1;fillColor=none;align=left;verticalAlign=middle;spacingTop=-1;spacingLeft=3;spacingRight=3;rotatable=0;labelPosition=right;points=[];portConstraint=eastwest;strokeColor=inherit;" vertex="1" parent="uFxU8IMKc7Zmd3NYNZAz-73">
          <mxGeometry y="26" width="160" height="8" as="geometry" />
        </mxCell>
        <mxCell id="uFxU8IMKc7Zmd3NYNZAz-76" value="&lt;div&gt;+ GetRunningTex(): string&lt;/div&gt;&lt;div&gt;+ ToString(): string&lt;/div&gt;" style="text;strokeColor=none;fillColor=none;align=left;verticalAlign=middle;spacingLeft=4;spacingRight=4;overflow=hidden;rotatable=0;points=[[0,0.5],[1,0.5]];portConstraint=eastwest;whiteSpace=wrap;html=1;" vertex="1" parent="uFxU8IMKc7Zmd3NYNZAz-73">
          <mxGeometry y="34" width="160" height="42" as="geometry" />
        </mxCell>
        <mxCell id="uFxU8IMKc7Zmd3NYNZAz-77" style="edgeStyle=orthogonalEdgeStyle;rounded=0;orthogonalLoop=1;jettySize=auto;html=1;endArrow=block;endFill=0;exitX=0.5;exitY=0;exitDx=0;exitDy=0;" edge="1" parent="1" source="uFxU8IMKc7Zmd3NYNZAz-73" target="uFxU8IMKc7Zmd3NYNZAz-39">
          <mxGeometry relative="1" as="geometry">
            <mxPoint x="570" y="810" as="sourcePoint" />
            <mxPoint x="350" y="760" as="targetPoint" />
            <Array as="points">
              <mxPoint x="90" y="780" />
              <mxPoint x="340" y="780" />
            </Array>
          </mxGeometry>
        </mxCell>
        <mxCell id="uFxU8IMKc7Zmd3NYNZAz-78" value="DrivingLicense" style="swimlane;fontStyle=1;align=center;verticalAlign=top;childLayout=stackLayout;horizontal=1;startSize=26;horizontalStack=0;resizeParent=1;resizeParentMax=0;resizeLast=0;collapsible=1;marginBottom=0;whiteSpace=wrap;html=1;" vertex="1" parent="1">
          <mxGeometry x="180" y="800" width="300" height="110" as="geometry" />
        </mxCell>
        <mxCell id="uFxU8IMKc7Zmd3NYNZAz-79" value="+ CategoryIssuingDate: Dictionary&amp;lt;string, DateTime&amp;gt;&lt;br&gt;+&amp;nbsp;Category: string" style="text;strokeColor=none;fillColor=none;align=left;verticalAlign=middle;spacingLeft=4;spacingRight=4;overflow=hidden;rotatable=0;points=[[0,0.5],[1,0.5]];portConstraint=eastwest;whiteSpace=wrap;html=1;" vertex="1" parent="uFxU8IMKc7Zmd3NYNZAz-78">
          <mxGeometry y="26" width="300" height="34" as="geometry" />
        </mxCell>
        <mxCell id="uFxU8IMKc7Zmd3NYNZAz-80" value="" style="line;strokeWidth=1;fillColor=none;align=left;verticalAlign=middle;spacingTop=-1;spacingLeft=3;spacingRight=3;rotatable=0;labelPosition=right;points=[];portConstraint=eastwest;strokeColor=inherit;" vertex="1" parent="uFxU8IMKc7Zmd3NYNZAz-78">
          <mxGeometry y="60" width="300" height="8" as="geometry" />
        </mxCell>
        <mxCell id="uFxU8IMKc7Zmd3NYNZAz-81" value="&lt;div&gt;+ GetRunningTex(): string&lt;/div&gt;&lt;div&gt;+ ToString(): string&lt;/div&gt;" style="text;strokeColor=none;fillColor=none;align=left;verticalAlign=middle;spacingLeft=4;spacingRight=4;overflow=hidden;rotatable=0;points=[[0,0.5],[1,0.5]];portConstraint=eastwest;whiteSpace=wrap;html=1;" vertex="1" parent="uFxU8IMKc7Zmd3NYNZAz-78">
          <mxGeometry y="68" width="300" height="42" as="geometry" />
        </mxCell>
        <mxCell id="uFxU8IMKc7Zmd3NYNZAz-82" style="edgeStyle=orthogonalEdgeStyle;rounded=0;orthogonalLoop=1;jettySize=auto;html=1;endArrow=block;endFill=0;" edge="1" parent="1" source="uFxU8IMKc7Zmd3NYNZAz-78" target="uFxU8IMKc7Zmd3NYNZAz-39">
          <mxGeometry relative="1" as="geometry">
            <mxPoint x="570" y="810" as="sourcePoint" />
            <mxPoint x="350" y="760" as="targetPoint" />
            <Array as="points">
              <mxPoint x="340" y="770" />
              <mxPoint x="340" y="770" />
            </Array>
          </mxGeometry>
        </mxCell>
        <mxCell id="uFxU8IMKc7Zmd3NYNZAz-83" value="DocumentsContainer" style="swimlane;fontStyle=1;align=center;verticalAlign=top;childLayout=stackLayout;horizontal=1;startSize=26;horizontalStack=0;resizeParent=1;resizeParentMax=0;resizeLast=0;collapsible=1;marginBottom=0;whiteSpace=wrap;html=1;" vertex="1" parent="1">
          <mxGeometry x="25" y="210" width="190" height="130" as="geometry" />
        </mxCell>
        <mxCell id="uFxU8IMKc7Zmd3NYNZAz-84" value="+ _documents: List&amp;lt;Document&amp;gt;&lt;br&gt;+&amp;nbsp;Documents: List&amp;lt;Document&amp;gt;" style="text;strokeColor=none;fillColor=none;align=left;verticalAlign=middle;spacingLeft=4;spacingRight=4;overflow=hidden;rotatable=0;points=[[0,0.5],[1,0.5]];portConstraint=eastwest;whiteSpace=wrap;html=1;" vertex="1" parent="uFxU8IMKc7Zmd3NYNZAz-83">
          <mxGeometry y="26" width="190" height="34" as="geometry" />
        </mxCell>
        <mxCell id="uFxU8IMKc7Zmd3NYNZAz-85" value="" style="line;strokeWidth=1;fillColor=none;align=left;verticalAlign=middle;spacingTop=-1;spacingLeft=3;spacingRight=3;rotatable=0;labelPosition=right;points=[];portConstraint=eastwest;strokeColor=inherit;" vertex="1" parent="uFxU8IMKc7Zmd3NYNZAz-83">
          <mxGeometry y="60" width="190" height="8" as="geometry" />
        </mxCell>
        <mxCell id="uFxU8IMKc7Zmd3NYNZAz-86" value="+ Add(Document): void&lt;br&gt;+&amp;nbsp;Remove(Document): void&lt;br&gt;+&amp;nbsp;Move(Document, int): void&lt;br&gt;+&amp;nbsp;ToString(): string" style="text;strokeColor=none;fillColor=none;align=left;verticalAlign=middle;spacingLeft=4;spacingRight=4;overflow=hidden;rotatable=0;points=[[0,0.5],[1,0.5]];portConstraint=eastwest;whiteSpace=wrap;html=1;" vertex="1" parent="uFxU8IMKc7Zmd3NYNZAz-83">
          <mxGeometry y="68" width="190" height="62" as="geometry" />
        </mxCell>
        <mxCell id="uFxU8IMKc7Zmd3NYNZAz-87" value="" style="edgeStyle=orthogonalEdgeStyle;rounded=0;orthogonalLoop=1;jettySize=auto;html=1;dashed=1;endArrow=block;endFill=0;" edge="1" parent="1" source="uFxU8IMKc7Zmd3NYNZAz-83" target="uFxU8IMKc7Zmd3NYNZAz-1">
          <mxGeometry relative="1" as="geometry">
            <Array as="points">
              <mxPoint x="240" y="230" />
              <mxPoint x="240" y="230" />
            </Array>
          </mxGeometry>
        </mxCell>
      </root>
    </mxGraphModel>
  </diagram>
</mxfile>
